<svg xmlns="http://www.w3.org/2000/svg" viewBox="0 0 120 40" width="120" height="40" fill="currentColor">
  <path d="M10 10h12v4H14v6h6v4h-6v6H10zm16 4l4-4 4 4v12h-4v-12l-4 4zm16-4c-4.4 0-8 3.6-8 8v8h4v-8c0-2.2 1.8-4 4-4s4 1.8 4 4v8h4v-8c0-4.4-3.6-8-8-8zm16 0h-8v16h4v-6h4c2.2 0 4-1.8 4-4v-2c0-2.2-1.8-4-4-4zm0 6h-4v-2h4c1.1 0 2 .9 2 2v2c0 1.1-.9 2-2 2zm16-6c-2.2 0-4 1.8-4 4v12h4v-12c0-1.1.9-2 2-2s2 .9 2 2v12h4v-12c0-2.2-1.8-4-4-4zm16 0l-8 16h4l2-4h8l2 4h4zm2 8l2-4 2 4z" fill="#0F172A"/>
  <circle cx="108" cy="18" r="4" fill="#06B6D4"/>
</svg>
