<svg xmlns="http://www.w3.org/2000/svg" viewBox="0 0 800 500" width="800" height="500">
  <rect width="800" height="500" fill="#F8FAFC"/>
  <!-- Top Bar -->
  <rect width="800" height="60" fill="#FFFFFF" rx="4" filter="drop-shadow(0 1px 2px rgba(0,0,0,0.05))"/>
  <circle cx="30" cy="30" r="10" fill="#2563EB"/>
  <rect x="60" y="22" width="100" height="16" rx="4" fill="#E2E8F0"/>
  <rect x="680" y="15" width="90" height="30" rx="6" fill="#2563EB"/>
  <!-- Sidebar -->
  <rect y="60" width="200" height="440" fill="#FFFFFF"/>
  <rect x="20" y="90" width="160" height="30" rx="6" fill="#F1F5F9"/>
  <rect x="20" y="140" width="120" height="16" rx="4" fill="#E2E8F0"/>
  <rect x="20" y="180" width="140" height="16" rx="4" fill="#E2E8F0"/>
  <rect x="20" y="220" width="100" height="16" rx="4" fill="#E2E8F0"/>
  <!-- Content Area -->
  <rect x="220" y="80" width="560" height="400" fill="#FFFFFF" rx="8" filter="drop-shadow(0 4px 6px rgba(0,0,0,0.05))"/>
  <!-- Metrics Cards -->
  <rect x="240" y="100" width="150" height="80" rx="8" fill="#EFF6FF" stroke="#BFDBFE"/>
  <rect x="260" y="120" width="60" height="12" rx="3" fill="#3B82F6"/>
  <rect x="260" y="140" width="80" height="24" rx="4" fill="#1E3A8A"/>
  
  <rect x="410" y="100" width="150" height="80" rx="8" fill="#ECFDF5" stroke="#A7F3D0"/>
  <rect x="430" y="120" width="60" height="12" rx="3" fill="#10B981"/>
  <rect x="430" y="140" width="80" height="24" rx="4" fill="#064E3B"/>
  
  <rect x="580" y="100" width="180" height="80" rx="8" fill="#F0FDFA" stroke="#99F6E4"/>
  <rect x="600" y="120" width="80" height="12" rx="3" fill="#0D9488"/>
  <rect x="600" y="140" width="100" height="24" rx="4" fill="#115E59"/>
  
  <!-- Chart Placeholder -->
  <path d="M240 420 L240 220 L760 220" stroke="#CBD5E1" stroke-width="2"/>
  <path d="M240 380 Q320 300 400 340 T560 260 T760 300" fill="none" stroke="#2563EB" stroke-width="4"/>
  <path d="M240 350 Q320 280 400 310 T560 220 T760 250" fill="none" stroke="#06B6D4" stroke-width="3" stroke-dasharray="4"/>
</svg>
