<svg xmlns="http://www.w3.org/2000/svg" viewBox="0 0 120 40" width="120" height="40" fill="currentColor">
  <path d="M12 12.2c-4.2 0-7.6 3.4-7.6 7.8 0 4.3 3.4 7.8 7.6 7.8 2.2 0 4.1-.9 5.5-2.4l-3-2.9c-.6.6-1.5 1-2.5 1-2 0-3.6-1.6-3.6-3.5s1.6-3.5 3.6-3.5c1 0 1.9.4 2.5 1l3-2.9c-1.4-1.6-3.3-2.5-5.5-2.5zm13.1.5h4.1v15.2h-4.1zm11.7.5v6.5c0 1.8 1.1 2.9 2.7 2.9 1.6 0 2.7-1.1 2.7-2.9v-6.5h4.1v6.7c0 4.1-2.9 7-6.8 7-3.9 0-6.8-2.9-6.8-7v-6.7z" fill="#0F172A"/>
  <rect x="70" y="10" width="10" height="20" rx="2" fill="#2563EB"/>
  <polygon points="85,15 90,25 80,25" fill="#06B6D4"/>
  <circle cx="102" cy="20" r="6" fill="#0F172A"/>
</svg>
