<svg xmlns="http://www.w3.org/2000/svg" viewBox="0 0 120 40" width="120" height="40" fill="currentColor">
  <path d="M12.4 12.2c-4.2 0-7.6 3.4-7.6 7.8 0 4.3 3.4 7.8 7.6 7.8 2.2 0 4.1-.9 5.5-2.4l-3-2.9c-.6.6-1.5 1-2.5 1-2 0-3.6-1.6-3.6-3.5s1.6-3.5 3.6-3.5c1 0 1.9.4 2.5 1l3-2.9c-1.4-1.6-3.3-2.5-5.5-2.5zm13.1.5h4.1v15.2h-4.1zm11.7.5v6.5c0 1.8 1.1 2.9 2.7 2.9 1.6 0 2.7-1.1 2.7-2.9v-6.5h4.1v6.7c0 4.1-2.9 7-6.8 7-3.9 0-6.8-2.9-6.8-7v-6.7zm19.8 4.2h-4.3v-4.2h-4.1v4.2h-2.5v3.4h2.5v7.2c0 3 1.8 4.8 4.7 4.8 1 0 1.9-.2 2.5-.5V24c-.3.1-.7.2-1.2.2-1.2 0-1.9-.7-1.9-2.1v-5.3h4.3zm13-.5c-4.2 0-7.6 3.4-7.6 7.8s3.4 7.8 7.6 7.8c2.2 0 4.1-.9 5.5-2.4l-3-2.9c-.6.6-1.5 1-2.5 1-2 0-3.6-1.6-3.6-3.5s1.6-3.5 3.6-3.5c1 0 1.9.4 2.5 1l3-2.9c-1.4-1.6-3.3-2.5-5.5-2.5zm11.7-.5h4.1v6.5c.8-1.1 2.1-1.9 3.8-1.9 3.5 0 5.8 2.5 5.8 6.4v8.5H95V22.2c0-2.2-1.2-3.4-2.8-3.4-1.6 0-2.8 1.2-2.8 3.4v6.5h-4.1V12.2z" fill="#0F172A"/>
  <circle cx="110" cy="20" r="4" fill="#2563EB"/>
</svg>
