<svg xmlns="http://www.w3.org/2000/svg" viewBox="0 0 120 40" width="120" height="40" fill="currentColor">
  <path d="M10 10h12v4H14v6h6v4h-6v6H10zm16 4c0-2.2 1.8-4 4-4s4 1.8 4 4v12c0 2.2-1.8 4-4 4s-4-1.8-4-4zm4 0v12c0 1.1-.9 2-2 2s-2-.9-2-2V14c0-1.1.9-2 2-2s2 .9 2 2zm12-4c0-2.2 1.8-4 4-4s4 1.8 4 4v12c0 2.2-1.8 4-4 4s-4-1.8-4-4zm4 0v12c0 1.1-.9 2-2 2s-2-.9-2-2V14c0-1.1.9-2 2-2s2 .9 2 2zm12-4h8c2.2 0 4 1.8 4 4v6c0 2.2-1.8 4-4 4h-4v6h-4zm4 4v6h4c1.1 0 2-.9 2-2v-2c0-1.1-.9-2-2-2zm16-4h12v4H78v6h6v4h-6v6H74zm16 4c0-2.2 1.8-4 4-4s4 1.8 4 4v12c0 2.2-1.8 4-4 4s-4-1.8-4-4zm4 0v12c0 1.1-.9 2-2 2s-2-.9-2-2V14c0-1.1.9-2 2-2s2 .9 2 2zm16-4h4l4 8 4-8h4v16h-4v-8l-4 8h-2l-4-8v8h-4z" fill="#0F172A"/>
  <rect x="112" y="24" width="4" height="4" fill="#06B6D4"/>
</svg>
